<svg xmlns="http://www.w3.org/2000/svg" xmlns:xlink="http://www.w3.org/1999/xlink" version="1.1" id="Your_Icon" x="0px" y="0px" width="100px" height="100px" viewBox="0 0 100 100" enable-background="new 0 0 100 100" xml:space="preserve">
<g>
	<path fill="#000000" d="M70.145,51.241c-0.652-1.755-2.754-3.322-6.428-4.791c-1.046-0.418-2.06-0.764-2.889-1.026   c0.168-0.603,0.285-1.236,0.352-1.905c0.082-0.841,0.085-1.754,0.007-2.75l13.691,5.018l-1.111-3.146   c-0.063-0.177-1.552-4.374-3.662-9.179c-2.893-6.584-5.457-10.913-7.626-12.863c-2.265-2.038-4.632-3.318-7.034-3.807   c-1.745-0.355-3.522-0.281-5.142,0.214c-0.354,0.108-0.666,0.226-0.933,0.341c-5.312-4.998-11.086-7.85-14.457-9.226   c-2.585-1.257-4.841-1.605-6.706-1.036c-0.101,0.031-0.201,0.064-0.3,0.101c-0.23,0.038-0.458,0.091-0.682,0.16   c-1.125,0.344-2.093,1.04-2.877,2.069c-0.915,1.201-1.554,2.851-1.9,4.903c-0.848,3.587-1.893,10.047-0.852,17.366   c-0.725,0.447-1.683,1.165-2.608,2.249c-1.592,1.863-3.388,5.212-2.909,10.585c0.264,2.951,2.296,7.574,6.039,13.739   c2.727,4.49,5.337,8.113,5.448,8.266l1.831,2.534l4.473-14.214c1.224,1.135,2.333,1.947,3.497,2.455   c0.033,0.016,0.067,0.029,0.1,0.043c-0.305,0.714-0.641,1.556-0.958,2.464c-1.27,3.641-1.579,6.481-0.918,8.442   c0.256,0.76,0.919,1.224,1.973,1.375c0.486,0.071,1.13,0.086,1.899,0.047c-0.003,0.019-0.006,0.035-0.009,0.054   c-0.06,0.401-0.1,0.851-0.118,1.347c-0.008,0.494,0.002,1.039,0.068,1.621c0.031,0.291,0.076,0.592,0.134,0.902   c0.062,0.307,0.115,0.636,0.266,0.93c0.333,0.573,0.643,1.192,1.05,1.79c0.399,0.601,0.866,1.19,1.39,1.757   c0.526,0.565,1.113,1.104,1.749,1.608c0.639,0.499,1.326,0.962,2.051,1.385c0.726,0.421,1.491,0.798,2.282,1.137   c0.099,0.042,0.197,0.084,0.297,0.127c0.1,0.039,0.2,0.078,0.3,0.118c0.101,0.04,0.201,0.082,0.302,0.119   c0.102,0.037,0.203,0.075,0.305,0.112c0.192,0.069,0.385,0.141,0.579,0.211c0.174,0.068,0.34,0.131,0.521,0.207   c0.712,0.291,1.417,0.637,2.111,1.02c1.386,0.771,2.721,1.713,3.966,2.769c1.243,1.058,2.402,2.229,3.424,3.461   c0.51,0.616,0.986,1.249,1.398,1.884c0.207,0.315,0.396,0.634,0.548,0.933c0.075,0.147,0.141,0.292,0.18,0.4l0.015,0.039   l0.009,0.03c0.005,0.011,0.006,0.017,0.007,0.021c0,0.001,0.001,0.003,0.001,0.005c0.003,0.022,0.006,0.059,0.011,0.087   c0.003,0.022,0.009,0.06,0.017,0.098c0.01,0.044,0.02,0.099,0.054,0.203c0.176,0.089-0.249,0.322,1.034,0.956   c1.792-0.038,1.415-0.704,1.617-0.688c0.057-0.099,0.082-0.162,0.101-0.205c0.017-0.041,0.028-0.074,0.036-0.099l0.021-0.066   l0.015-0.049l0.02-0.077c0.012-0.046,0.02-0.083,0.027-0.118c0.015-0.07,0.025-0.13,0.036-0.188   c0.021-0.117,0.039-0.225,0.056-0.33c0.033-0.212,0.062-0.415,0.091-0.616c0.054-0.404,0.104-0.796,0.153-1.186   c0.096-0.778,0.185-1.534,0.269-2.271c0.021-0.184,0.042-0.366,0.063-0.548c0.023-0.183,0.053-0.36,0.081-0.538   c0.029-0.178,0.056-0.354,0.072-0.531c0.017-0.176,0.021-0.353,0.02-0.528c-0.006-0.504-0.013-0.996-0.019-1.476   c0.066,0.051,0.133,0.102,0.199,0.151l0.726,0.547c0.241,0.182,0.485,0.359,0.729,0.54c0.487,0.357,0.976,0.714,1.468,1.064   l1.235,0.883l0.026-1.702l0.009-0.497c0.003-0.168,0.008-0.338,0.015-0.508c0.011-0.339,0.027-0.679,0.046-1.017   c0.04-0.677,0.091-1.349,0.163-2.013c0.071-0.663,0.164-1.319,0.281-1.958c0.119-0.638,0.265-1.26,0.451-1.844   c0.095-0.29,0.195-0.573,0.312-0.838c0.029-0.065,0.059-0.132,0.089-0.195l0.108-0.236l0.108-0.238l0.113-0.257   c0.076-0.172,0.146-0.338,0.217-0.508c0.07-0.169,0.137-0.339,0.204-0.509c0.133-0.342,0.259-0.686,0.376-1.032   c0.239-0.694,0.446-1.4,0.623-2.113c0.089-0.358,0.168-0.718,0.242-1.078c0.068-0.363,0.136-0.726,0.189-1.089   c0.055-0.366,0.101-0.732,0.14-1.1c0.037-0.367,0.061-0.735,0.084-1.105c0.017-0.368,0.026-0.738,0.026-1.107   c-0.001-0.37-0.011-0.739-0.03-1.107c-0.041-0.738-0.122-1.475-0.244-2.203c-0.122-0.727-0.285-1.447-0.493-2.153   c-0.205-0.706-0.454-1.397-0.746-2.069c-0.29-0.671-0.623-1.32-0.998-1.942c-0.374-0.622-0.79-1.215-1.241-1.772   c-0.393-0.479-0.811-0.933-1.261-1.349c0.151-0.2,0.3-0.403,0.442-0.606C70.384,53.506,70.552,52.341,70.145,51.241z    M54.819,19.869c1.846,0.376,3.716,1.406,5.559,3.064c3.05,2.744,7.015,11.846,9.245,17.584l-8.718-3.194   c-0.254-0.997-0.762-2.775-1.618-4.964c-1.786-5.037-4.469-9.158-7.465-12.502C52.587,19.7,53.612,19.624,54.819,19.869z    M28.301,62.083c-3.433-5.081-8.723-13.686-9.094-17.844c-0.302-3.372,0.395-6.113,2.069-8.148   c0.319-0.387,0.646-0.713,0.956-0.982c0.875,3.801,2.373,7.741,4.782,11.562c0.224,0.372,0.443,0.725,0.656,1.057   c1.472,2.295,2.848,3.969,3.622,4.851L28.301,62.083z M33.518,50.004c-1.526-1.652-2.816-3.361-3.902-5.098   c-1.723-2.896-3.669-7.018-4.388-11.723c-0.091-0.594-0.178-1.164-0.472-1.608c-1.061-6.985-0.047-13.192,0.758-16.583l0.013-0.053   l0.009-0.053c0.42-2.541,1.346-4.153,2.605-4.538c0.117-0.036,0.236-0.061,0.357-0.076l0.211-0.026l0.197-0.082   c0.069-0.028,0.143-0.054,0.217-0.077c1.075-0.329,2.616-0.025,4.456,0.876l0.049,0.024l0.05,0.021   c3.266,1.329,9.011,4.164,14.142,9.208c0.209,0.311,0.49,0.596,0.767,0.875c3.763,3.808,6.127,8.408,7.448,11.596   c0.101,0.243,0.197,0.482,0.289,0.717c0.496,1.393,0.917,2.861,1.246,4.409c0.623,2.925,1.031,6.245-0.675,8.7   c-1.363,1.963-3.955,3.482-7.748,5.561c-2.329,0.976-4.19,1.718-5.686,2.176H43.46c-2.215,0.677-3.571,0.726-4.835,0.172   C37.188,53.795,35.664,52.327,33.518,50.004z M39.461,60.874c0.392-1.127,0.823-2.157,1.169-2.931   c1.098-0.021,2.313-0.251,3.748-0.689c0,0,0,0,0.001,0c1.643-0.502,3.537-1.259,6.058-2.314l0.077-0.032l0.071-0.04   c4.224-2.313,7.125-4.021,8.89-6.562c0.002-0.004,0.005-0.007,0.008-0.011c0.835,0.255,1.955,0.625,3.098,1.083   c3.94,1.581,4.541,2.74,4.62,2.957c0.031,0.082,0.059,0.159-0.1,0.385c-1.74,2.478-4.218,4.758-7.365,6.778   c-2.688,1.727-5.795,3.227-9.236,4.459c-5.79,2.072-10.433,2.647-12.078,2.598C38.312,65.578,38.43,63.838,39.461,60.874z    M62.29,93.662c0-0.001-0.001-0.002,0-0.003C62.291,93.663,62.291,93.665,62.29,93.662z M62.286,93.633c0,0,0,0.003,0.001,0.01   C62.287,93.64,62.285,93.636,62.286,93.633l-0.001-0.011C62.285,93.629,62.283,93.595,62.286,93.633z M65.178,93.377   C65.179,93.38,65.178,93.38,65.178,93.377L65.178,93.377z M69.888,56.84c0.137,0.316,0.256,0.64,0.376,0.961   c0.06,0.159,0.114,0.322,0.171,0.482l0.156,0.486c0.204,0.646,0.376,1.299,0.52,1.954c0.142,0.654,0.253,1.312,0.337,1.97   c0.081,0.658,0.138,1.317,0.163,1.976c0.012,0.33,0.021,0.659,0.019,0.988c0.001,0.164-0.003,0.329-0.004,0.492   c-0.006,0.165-0.009,0.33-0.018,0.494c-0.012,0.328-0.035,0.655-0.06,0.981c-0.024,0.328-0.062,0.655-0.099,0.981   c-0.04,0.325-0.082,0.65-0.135,0.976c-0.05,0.324-0.106,0.647-0.171,0.97c-0.123,0.646-0.271,1.287-0.441,1.924   c-0.084,0.317-0.173,0.636-0.268,0.952c-0.097,0.314-0.193,0.632-0.299,0.943c-0.104,0.313-0.217,0.626-0.328,0.938   c-0.059,0.155-0.115,0.312-0.176,0.466c-0.061,0.153-0.12,0.312-0.18,0.46l-0.09,0.226l-0.101,0.24l-0.102,0.243   c-0.039,0.097-0.076,0.191-0.112,0.287c-0.071,0.191-0.136,0.383-0.193,0.574c-0.061,0.19-0.111,0.381-0.158,0.571   c-0.092,0.38-0.17,0.758-0.227,1.134c-0.06,0.377-0.104,0.75-0.135,1.123c-0.064,0.743-0.077,1.48-0.061,2.211   c0.021,0.729,0.072,1.453,0.156,2.17c0.022,0.199,0.049,0.398,0.076,0.598c-0.033-0.017-0.066-0.033-0.101-0.049   c-0.274-0.128-0.547-0.257-0.823-0.383l-0.826-0.378c-0.235-0.107-0.472-0.212-0.709-0.317c-0.008-0.489-0.021-0.963-0.03-1.418   c-0.012-0.593-0.029-1.155-0.046-1.684c-0.015-0.529-0.031-1.023-0.05-1.481c-0.018-0.457-0.032-0.878-0.051-1.257   c-0.034-0.76-0.065-1.356-0.088-1.764c-0.024-0.407-0.038-0.625-0.038-0.625s-0.057,0.21-0.162,0.604   c-0.103,0.394-0.255,0.973-0.44,1.71c-0.095,0.367-0.195,0.775-0.306,1.22c-0.112,0.443-0.229,0.925-0.353,1.438   c-0.125,0.513-0.259,1.059-0.394,1.635c-0.055,0.232-0.111,0.472-0.169,0.713c-0.172-0.069-0.344-0.138-0.516-0.204   c0.155,0.132,0.312,0.262,0.471,0.392c-0.071,0.297-0.144,0.602-0.215,0.912c-0.147,0.632-0.301,1.289-0.459,1.969   c-0.04,0.171-0.073,0.343-0.096,0.519c-0.023,0.174-0.035,0.351-0.047,0.529c-0.011,0.18-0.021,0.359-0.039,0.54   c-0.021,0.181-0.04,0.362-0.062,0.545c-0.015,0.132-0.03,0.266-0.046,0.399c-0.179-0.23-0.36-0.458-0.546-0.683   c-1.139-1.373-2.408-2.654-3.782-3.824c-1.377-1.167-2.863-2.218-4.435-3.093c-0.787-0.436-1.593-0.83-2.415-1.166   c-0.201-0.085-0.423-0.17-0.632-0.25c-0.193-0.071-0.386-0.142-0.578-0.211c-0.091-0.034-0.181-0.066-0.271-0.1   c-0.089-0.034-0.178-0.07-0.266-0.104c-0.089-0.035-0.177-0.069-0.265-0.104c-0.087-0.037-0.174-0.074-0.26-0.111   c-0.691-0.295-1.35-0.62-1.966-0.978c-0.614-0.357-1.187-0.746-1.712-1.157c-0.522-0.413-0.998-0.849-1.417-1.301   c-0.419-0.453-0.789-0.92-1.101-1.393c-0.082-0.117-0.153-0.237-0.229-0.354c-0.07-0.119-0.142-0.236-0.207-0.355   c-0.033-0.06-0.065-0.119-0.098-0.178c-0.031-0.059-0.058-0.12-0.084-0.182c-0.055-0.12-0.091-0.247-0.145-0.364   c-0.047-0.119-0.112-0.229-0.183-0.336c-0.075-0.104-0.146-0.211-0.217-0.314c-0.137-0.213-0.27-0.422-0.388-0.632   c-0.242-0.42-0.448-0.834-0.619-1.23c-0.174-0.396-0.315-0.775-0.431-1.124c-0.006-0.021-0.012-0.039-0.019-0.058   c2.205-0.236,5.113-0.824,8.288-1.794c1.058-0.323,2.146-0.688,3.248-1.099c3.549-1.318,6.762-2.912,9.548-4.739   c3.059-2.003,5.55-4.261,7.42-6.716C69.417,55.764,69.666,56.298,69.888,56.84z"/>
	<path fill="#000000" d="M60.815,81.313c-0.039-0.094-0.084-0.202-0.14-0.319c-0.055-0.118-0.117-0.251-0.191-0.388   c-0.073-0.142-0.157-0.289-0.253-0.445c-0.188-0.312-0.424-0.652-0.705-1.005c-0.281-0.354-0.613-0.717-0.989-1.073   c-0.377-0.358-0.799-0.709-1.253-1.04c-0.453-0.332-0.939-0.646-1.438-0.931c-0.248-0.146-0.501-0.281-0.751-0.416   c-0.251-0.131-0.5-0.262-0.745-0.383c-0.243-0.126-0.482-0.243-0.707-0.362c-0.227-0.115-0.441-0.23-0.629-0.342l-0.036-0.021   l-0.028-0.017l-0.055-0.033l-0.027-0.017c-0.01-0.005-0.018-0.009-0.033-0.021l-0.085-0.057c-0.096-0.064-0.189-0.128-0.284-0.191   c-0.098-0.067-0.197-0.136-0.294-0.203c-0.099-0.066-0.194-0.133-0.288-0.199c-0.76-0.531-1.44-1.041-2.009-1.531   c-0.285-0.245-0.544-0.484-0.767-0.713c-0.226-0.229-0.42-0.446-0.575-0.639c-0.08-0.096-0.147-0.186-0.207-0.267   c-0.06-0.081-0.107-0.152-0.148-0.212c-0.04-0.06-0.069-0.107-0.09-0.141c-0.02-0.033-0.03-0.051-0.03-0.051   s-0.012,0.017-0.031,0.053c-0.019,0.034-0.044,0.087-0.073,0.158c-0.031,0.07-0.058,0.159-0.09,0.266   c-0.027,0.107-0.055,0.232-0.075,0.373c-0.041,0.283-0.053,0.635-0.007,1.031c0.044,0.396,0.148,0.838,0.323,1.295   c0.173,0.457,0.416,0.931,0.727,1.386c0.31,0.456,0.684,0.898,1.107,1.306c0.107,0.102,0.213,0.206,0.327,0.3   c0.113,0.096,0.224,0.197,0.344,0.286c0.059,0.045,0.118,0.092,0.177,0.138l0.044,0.035l0.022,0.017l0.011,0.009l0.006,0.005   c-0.022-0.016,0.037,0.025,0.032,0.022l0.084,0.059l0.085,0.058c0.012,0.009,0.033,0.022,0.053,0.035l0.059,0.038l0.121,0.075   l0.059,0.037l0.054,0.031c0.286,0.171,0.562,0.311,0.836,0.442c0.138,0.066,0.271,0.126,0.406,0.187   c0.132,0.061,0.268,0.117,0.398,0.171c0.527,0.223,1.035,0.417,1.529,0.608c0.495,0.19,0.97,0.377,1.429,0.562   c0.457,0.186,0.895,0.373,1.309,0.561c0.415,0.188,0.81,0.372,1.17,0.558c0.363,0.183,0.699,0.359,0.996,0.524   c0.074,0.041,0.147,0.081,0.219,0.118c0.069,0.04,0.137,0.079,0.202,0.115c0.064,0.037,0.128,0.071,0.188,0.104   c0.062,0.033,0.117,0.068,0.172,0.1c0.107,0.064,0.211,0.116,0.295,0.168c0.085,0.051,0.16,0.091,0.221,0.127   c0.121,0.067,0.189,0.103,0.189,0.103s-0.022-0.072-0.069-0.203C60.882,81.49,60.854,81.407,60.815,81.313z"/>
	<path fill="#000000" d="M42.342,39.942c0.477-0.146,0.947-0.337,1.394-0.568c4.068-2.104,5.667-7.125,3.564-11.193   c-1.844-3.566-5.965-5.304-9.799-4.132c-0.479,0.146-0.948,0.337-1.394,0.569c-4.068,2.104-5.667,7.125-3.564,11.192   C34.387,39.376,38.507,41.114,42.342,39.942z M37.549,27.407c0.279-0.145,0.572-0.264,0.87-0.355   c2.383-0.728,4.945,0.354,6.091,2.572c1.308,2.53,0.314,5.653-2.216,6.961c-0.28,0.145-0.572,0.264-0.87,0.355   c-2.383,0.728-4.945-0.354-6.092-2.571C34.024,31.838,35.019,28.715,37.549,27.407z"/>
</g>
</svg>